Coordinates
version=1
nRows=65
nColumns=12
inDegrees=yes

Units are S.I. units (second, meters, Newtons, ...)
Angles are in degrees

endheader
time	SC_y	SC_z	SC_x	AC_y	AC_z	AC_x	GH_y	GH_z	GH_yy	EL_x	PS_y
       0.0              -24.27         -2.567          36.12          60.05         -9.423          6.556          7.821         -15.12          11.55          55.99          6.839
   0.02775              -24.27         -2.565          36.13          60.05         -9.422          6.554          7.819         -15.12          11.53          55.99          6.859
   0.05549              -24.28         -2.562          36.14          60.05         -9.422          6.553          7.817         -15.11          11.51           56.0           6.88
   0.08324              -24.28          -2.56          36.14          60.05         -9.421          6.552          7.815         -15.11          11.48          56.01          6.902
     0.111              -24.28         -2.557          36.15          60.05         -9.421           6.55          7.813         -15.11          11.46          56.02          6.926
    0.1387              -24.28         -2.554          36.16          60.05          -9.42          6.549          7.811          -15.1          11.43          56.03          6.952
    0.1665              -24.28         -2.551          36.17          60.05          -9.42          6.547          7.809          -15.1           11.4          56.04          6.979
    0.1942              -24.28         -2.548          36.18          60.05         -9.419          6.545          7.807          -15.1          11.37          56.06          7.008
     0.222              -24.28         -2.544          36.19          60.05         -9.418          6.544          7.804         -15.09          11.34          56.07          7.039
    0.2497              -24.28          -2.54           36.2          60.05         -9.418          6.542          7.801         -15.09           11.3          56.08          7.073
    0.2775              -24.28         -2.536          36.21          60.05         -9.417          6.539          7.799         -15.08          11.27           56.1          7.108
    0.3052              -24.28         -2.532          36.22          60.05         -9.416          6.537          7.795         -15.08          11.23          56.11          7.147
    0.3329              -24.28         -2.527          36.23          60.05         -9.415          6.534          7.792         -15.07          11.18          56.13          7.189
    0.3607              -24.28         -2.522          36.25          60.05         -9.414          6.532          7.788         -15.06          11.13          56.15          7.234
    0.3884              -24.28         -2.517          36.26          60.05         -9.413          6.529          7.784         -15.06          11.08          56.17          7.282
    0.4162              -24.29         -2.511          36.28          60.05         -9.412          6.526           7.78         -15.05          11.03          56.19          7.335
    0.4439              -24.29         -2.504          36.29          60.05         -9.411          6.522          7.775         -15.04          10.97          56.22          7.392
    0.4717              -24.29         -2.497          36.31          60.05         -9.409          6.518           7.77         -15.03           10.9          56.24          7.455
    0.4994              -24.29         -2.489          36.33          60.05         -9.408          6.514          7.764         -15.02          10.83          56.27          7.523
    0.5272              -24.29         -2.481          36.36          60.05         -9.406           6.51          7.758         -15.01          10.75           56.3          7.598
    0.5549              -24.29         -2.471          36.38          60.05         -9.404          6.505          7.752          -15.0          10.67          56.34           7.68
    0.5827               -24.3         -2.461          36.41          60.06         -9.402          6.499          7.744         -14.99          10.57          56.37           7.77
    0.6104               -24.3          -2.45          36.44          60.06           -9.4          6.493          7.736         -14.97          10.47          56.42           7.87
    0.6382               -24.3         -2.437          36.47          60.06         -9.398          6.487          7.727         -14.96          10.35          56.46           7.98
    0.6659               -24.3         -2.424          36.51          60.06         -9.395          6.479          7.717         -14.94          10.22          56.51          8.103
    0.6936              -24.31         -2.408          36.55          60.06         -9.392          6.471          7.706         -14.92          10.08          56.57           8.24
    0.7214              -24.31         -2.391           36.6          60.06         -9.389          6.462          7.693          -14.9          9.916          56.64          8.394
    0.7491              -24.32         -2.371          36.65          60.06         -9.385          6.451          7.679         -14.87          9.735          56.71          8.566
    0.7769              -24.32         -2.349          36.71          60.07         -9.381           6.44          7.663         -14.85           9.53          56.79          8.761
    0.8046              -24.33         -2.324          36.78          60.07         -9.376          6.426          7.645         -14.82          9.298          56.88          8.983
    0.8324              -24.33         -2.295          36.86          60.07          -9.37          6.411          7.624         -14.78          9.032          56.99          9.236
    0.8601              -24.34         -2.262          36.95          60.07         -9.364          6.393            7.6         -14.74          8.728          57.11          9.526
    0.8879              -24.35         -2.224          37.05          60.08         -9.356          6.373          7.573         -14.69          8.376          57.25          9.861
    0.9156              -24.36          -2.18          37.17          60.08         -9.348           6.35          7.541         -14.63          7.967          57.41          10.25
    0.9434              -24.37         -2.129          37.31          60.09         -9.338          6.322          7.503         -14.57          7.489           57.6          10.71
    0.9711              -24.38         -2.068          37.47          60.09         -9.326           6.29          7.459         -14.49          6.925          57.83          11.24
    0.9988               -24.4         -1.995          37.67           60.1         -9.312          6.251          7.407          -14.4          6.256          58.09          11.88
     1.027              -24.42         -1.909           37.9          60.11         -9.295          6.205          7.344         -14.29          5.453          58.41          12.65
     1.054              -24.44         -1.804          38.19          60.12         -9.275          6.149          7.268         -14.16          4.481           58.8          13.57
     1.082              -24.47         -1.676          38.53          60.13          -9.25          6.081          7.175          -14.0          3.294          59.27           14.7
      1.11               -24.5         -1.518          38.96          60.15         -9.219          5.997          7.061          -13.8           1.83          59.85           16.1
     1.138              -24.54         -1.321          39.49          60.17         -9.181          5.892          6.918         -13.56       0.003253          60.58          17.84
     1.165               -24.6         -1.072          40.16          60.19         -9.133          5.759          6.738         -13.24         -2.298           61.5          20.03
     1.193              -24.66        -0.7567          41.02          60.22         -9.072          5.591          6.509         -12.85         -5.222          62.66          22.81
     1.221              -24.75        -0.3526          42.11          60.26         -8.994          5.376          6.216         -12.34         -8.966          64.15          26.38
     1.249              -24.86         0.1659          43.51          60.31         -8.893            5.1          5.841         -11.69         -13.77          66.06          30.96
     1.276               -25.0         0.8282           45.3          60.38         -8.765          4.747          5.361         -10.86         -19.91           68.5           36.8
     1.304              -25.18          1.661          47.55          60.46         -8.603          4.303          4.757          -9.81         -27.62          71.57          44.15
     1.332               -25.4          2.676          50.29          60.56         -8.406          3.763          4.022         -8.535         -37.03          75.31          53.11
      1.36              -25.66          3.852          53.47          60.67         -8.178          3.136           3.17         -7.058         -47.93          79.65          63.49
     1.387              -25.93          5.126          56.91           60.8         -7.931          2.457          2.247         -5.458         -59.73          84.35          74.73
     1.415               -26.2            6.4          60.36          60.92         -7.685          1.779          1.324         -3.858         -71.53          89.04          85.97
     1.443              -26.46          7.576          63.54          61.04         -7.456          1.152         0.4716          -2.38         -82.43          93.38          96.35
     1.471              -26.68          8.591          66.28          61.14          -7.26         0.6115        -0.2637         -1.106         -91.83          97.12          105.3
     1.498              -26.85          9.424          68.53          61.22         -7.098         0.1678        -0.8671       -0.05948         -99.55          100.2          112.7
     1.526               -27.0          10.09          70.32          61.28          -6.97         -0.185         -1.347         0.7724         -105.7          102.6          118.5
     1.554              -27.11           10.6          71.72          61.34         -6.869        -0.4613         -1.723          1.424         -110.5          104.5          123.1
     1.582               -27.2          11.01          72.81          61.38         -6.791        -0.6765         -2.015          1.931         -114.2          106.0          126.6
     1.609              -27.26          11.32          73.67          61.41          -6.73        -0.8447         -2.244          2.328         -117.2          107.2          129.4
     1.637              -27.32          11.57          74.34          61.43         -6.682         -0.977         -2.424           2.64         -119.5          108.1          131.6
     1.665              -27.36          11.77          74.87          61.45         -6.643         -1.082         -2.567          2.887         -121.3          108.8          133.4
     1.692              -27.39          11.93           75.3          61.47         -6.613         -1.166         -2.681          3.086         -122.7          109.4          134.8
      1.72              -27.42          12.06          75.64          61.48         -6.588         -1.234         -2.774          3.247         -123.9          109.9          135.9
     1.748              -27.44          12.16          75.93          61.49         -6.568          -1.29          -2.85          3.378         -124.9          110.3          136.8
     1.776              -27.46          12.25          76.16           61.5         -6.551         -1.336         -2.913          3.487         -125.7          110.6          137.6
